HIERARCHY
ROOT mixamorig:Hips
{
	OFFSET -0.000008 104.274872 1.554316
	CHANNELS 6 Xposition Yposition Zposition Xrotation Yrotation Zrotation
	JOINT mixamorig:Spine
	{
		OFFSET -0.000005 10.181595 0.131519
		CHANNELS 6 Xposition Yposition Zposition Xrotation Yrotation Zrotation
		JOINT mixamorig:Spine1
		{
			OFFSET -0.000000 9.893959 -1.470707
			CHANNELS 6 Xposition Yposition Zposition Xrotation Yrotation Zrotation
			JOINT mixamorig:Spine2
			{
				OFFSET -0.000000 9.220757 -1.370641
				CHANNELS 6 Xposition Yposition Zposition Xrotation Yrotation Zrotation
				JOINT mixamorig:Neck
				{
					OFFSET 0.000001 16.740417 -2.049036
					CHANNELS 6 Xposition Yposition Zposition Xrotation Yrotation Zrotation
					JOINT mixamorig:Head
					{
						OFFSET 0.000000 9.617874 1.685006
						CHANNELS 6 Xposition Yposition Zposition Xrotation Yrotation Zrotation
						JOINT mixamorig:HeadTop_End
						{
							OFFSET 0.000002 22.037354 7.501101
							CHANNELS 6 Xposition Yposition Zposition Xrotation Yrotation Zrotation
							End Site
							{
								OFFSET 0.000168 2310.654297 -282.823242
							}
						}
					}
				}
				JOINT mixamorig:RightShoulder
				{
					OFFSET -4.569970 11.014908 -2.160885
					CHANNELS 6 Xposition Yposition Zposition Xrotation Yrotation Zrotation
					JOINT mixamorig:RightArm
					{
						OFFSET -10.592851 -0.524811 -2.232101
						CHANNELS 6 Xposition Yposition Zposition Xrotation Yrotation Zrotation
						JOINT mixamorig:RightForeArm
						{
							OFFSET -27.841511 0.000031 -0.000004
							CHANNELS 6 Xposition Yposition Zposition Xrotation Yrotation Zrotation
							JOINT mixamorig:RightHand
							{
								OFFSET -28.328831 -0.000015 0.000015
								CHANNELS 6 Xposition Yposition Zposition Xrotation Yrotation Zrotation
								JOINT mixamorig:RightHandThumb1
								{
									OFFSET -2.464806 -1.573990 2.681852
									CHANNELS 6 Xposition Yposition Zposition Xrotation Yrotation Zrotation
									JOINT mixamorig:RightHandThumb2
									{
										OFFSET -3.215179 -1.872803 1.924282
										CHANNELS 6 Xposition Yposition Zposition Xrotation Yrotation Zrotation
										JOINT mixamorig:RightHandThumb3
										{
											OFFSET -2.654831 -1.527969 1.512609
											CHANNELS 6 Xposition Yposition Zposition Xrotation Yrotation Zrotation
											JOINT mixamorig:RightHandThumb4
											{
												OFFSET -2.018814 -1.152008 1.108052
												CHANNELS 6 Xposition Yposition Zposition Xrotation Yrotation Zrotation
												End Site
												{
													OFFSET -188.809540 -114.533607 132.431396
												}
											}
										}
									}
								}
								JOINT mixamorig:RightHandIndex1
								{
									OFFSET -9.108284 -0.517868 2.259835
									CHANNELS 6 Xposition Yposition Zposition Xrotation Yrotation Zrotation
									JOINT mixamorig:RightHandIndex2
									{
										OFFSET -3.699989 0.000000 0.001215
										CHANNELS 6 Xposition Yposition Zposition Xrotation Yrotation Zrotation
										JOINT mixamorig:RightHandIndex3
										{
											OFFSET -2.850006 0.000031 -0.000522
											CHANNELS 6 Xposition Yposition Zposition Xrotation Yrotation Zrotation
											JOINT mixamorig:RightHandIndex4
											{
												OFFSET -2.772186 -0.000015 -0.000020
												CHANNELS 6 Xposition Yposition Zposition Xrotation Yrotation Zrotation
												End Site
												{
													OFFSET -277.218445 0.000000 -0.050231
												}
											}
										}
									}
								}
								JOINT mixamorig:RightHandMiddle1
								{
									OFFSET -9.532516 -0.000031 -0.000023
									CHANNELS 6 Xposition Yposition Zposition Xrotation Yrotation Zrotation
									JOINT mixamorig:RightHandMiddle2
									{
										OFFSET -3.700005 -0.000015 0.003713
										CHANNELS 6 Xposition Yposition Zposition Xrotation Yrotation Zrotation
										JOINT mixamorig:RightHandMiddle3
										{
											OFFSET -2.949974 0.000015 -0.002054
											CHANNELS 6 Xposition Yposition Zposition Xrotation Yrotation Zrotation
											JOINT mixamorig:RightHandMiddle4
											{
												OFFSET -2.946640 0.000000 -0.000156
												CHANNELS 6 Xposition Yposition Zposition Xrotation Yrotation Zrotation
												End Site
												{
													OFFSET -294.664337 0.000000 -0.113670
												}
											}
										}
									}
								}
								JOINT mixamorig:RightHandRing1
								{
									OFFSET -9.103600 -0.043076 -1.865134
									CHANNELS 6 Xposition Yposition Zposition Xrotation Yrotation Zrotation
									JOINT mixamorig:RightHandRing2
									{
										OFFSET -3.379288 0.000000 -0.001055
										CHANNELS 6 Xposition Yposition Zposition Xrotation Yrotation Zrotation
										JOINT mixamorig:RightHandRing3
										{
											OFFSET -2.889687 -0.000015 0.000379
											CHANNELS 6 Xposition Yposition Zposition Xrotation Yrotation Zrotation
											JOINT mixamorig:RightHandRing4
											{
												OFFSET -2.638809 -0.000015 0.000941
												CHANNELS 6 Xposition Yposition Zposition Xrotation Yrotation Zrotation
												End Site
												{
													OFFSET -263.880371 0.000000 0.516020
												}
											}
										}
									}
								}
								JOINT mixamorig:RightHandPinky1
								{
									OFFSET -8.076683 -0.486710 -3.806280
									CHANNELS 6 Xposition Yposition Zposition Xrotation Yrotation Zrotation
									JOINT mixamorig:RightHandPinky2
									{
										OFFSET -3.600014 -0.000015 -0.003747
										CHANNELS 6 Xposition Yposition Zposition Xrotation Yrotation Zrotation
										JOINT mixamorig:RightHandPinky3
										{
											OFFSET -2.099983 0.000000 -0.005739
											CHANNELS 6 Xposition Yposition Zposition Xrotation Yrotation Zrotation
											JOINT mixamorig:RightHandPinky4
											{
												OFFSET -2.115768 -0.000031 -0.003680
												CHANNELS 6 Xposition Yposition Zposition Xrotation Yrotation Zrotation
												End Site
												{
													OFFSET -211.577087 0.000000 -0.350686
												}
											}
										}
									}
								}
							}
						}
					}
				}
				JOINT mixamorig:LeftShoulder
				{
					OFFSET 4.570447 11.014725 -2.160855
					CHANNELS 6 Xposition Yposition Zposition Xrotation Yrotation Zrotation
					JOINT mixamorig:LeftArm
					{
						OFFSET 10.592371 -0.524597 -2.232119
						CHANNELS 6 Xposition Yposition Zposition Xrotation Yrotation Zrotation
						JOINT mixamorig:LeftForeArm
						{
							OFFSET 27.841532 -0.000031 0.000026
							CHANNELS 6 Xposition Yposition Zposition Xrotation Yrotation Zrotation
							JOINT mixamorig:LeftHand
							{
								OFFSET 28.328846 -0.000061 0.000022
								CHANNELS 6 Xposition Yposition Zposition Xrotation Yrotation Zrotation
								JOINT mixamorig:LeftHandThumb1
								{
									OFFSET 2.466141 -1.576172 2.681732
									CHANNELS 6 Xposition Yposition Zposition Xrotation Yrotation Zrotation
									JOINT mixamorig:LeftHandThumb2
									{
										OFFSET 3.217812 -1.872070 1.916482
										CHANNELS 6 Xposition Yposition Zposition Xrotation Yrotation Zrotation
										JOINT mixamorig:LeftHandThumb3
										{
											OFFSET 2.656029 -1.528778 1.514513
											CHANNELS 6 Xposition Yposition Zposition Xrotation Yrotation Zrotation
											JOINT mixamorig:LeftHandThumb4
											{
												OFFSET 2.020889 -1.154053 1.115139
												CHANNELS 6 Xposition Yposition Zposition Xrotation Yrotation Zrotation
												End Site
												{
													OFFSET 190.885437 -115.081749 130.048782
												}
											}
										}
									}
								}
								JOINT mixamorig:LeftHandIndex1
								{
									OFFSET 9.109314 -0.518021 2.259871
									CHANNELS 6 Xposition Yposition Zposition Xrotation Yrotation Zrotation
									JOINT mixamorig:LeftHandIndex2
									{
										OFFSET 3.699989 0.000000 -0.000322
										CHANNELS 6 Xposition Yposition Zposition Xrotation Yrotation Zrotation
										JOINT mixamorig:LeftHandIndex3
										{
											OFFSET 2.850006 0.000000 0.000352
											CHANNELS 6 Xposition Yposition Zposition Xrotation Yrotation Zrotation
											JOINT mixamorig:LeftHandIndex4
											{
												OFFSET 2.774864 -0.000031 -0.000027
												CHANNELS 6 Xposition Yposition Zposition Xrotation Yrotation Zrotation
												End Site
												{
													OFFSET 277.486267 0.000000 -0.009857
												}
											}
										}
									}
								}
								JOINT mixamorig:LeftHandMiddle1
								{
									OFFSET 9.533394 0.000061 0.000044
									CHANNELS 6 Xposition Yposition Zposition Xrotation Yrotation Zrotation
									JOINT mixamorig:LeftHandMiddle2
									{
										OFFSET 3.699989 -0.000015 -0.000231
										CHANNELS 6 Xposition Yposition Zposition Xrotation Yrotation Zrotation
										JOINT mixamorig:LeftHandMiddle3
										{
											OFFSET 2.949997 -0.000015 -0.000059
											CHANNELS 6 Xposition Yposition Zposition Xrotation Yrotation Zrotation
											JOINT mixamorig:LeftHandMiddle4
											{
												OFFSET 2.952896 0.000031 0.000063
												CHANNELS 6 Xposition Yposition Zposition Xrotation Yrotation Zrotation
												End Site
												{
													OFFSET 295.289337 0.000000 0.022810
												}
											}
										}
									}
								}
								JOINT mixamorig:LeftHandRing1
								{
									OFFSET 9.104523 -0.042999 -1.865074
									CHANNELS 6 Xposition Yposition Zposition Xrotation Yrotation Zrotation
									JOINT mixamorig:LeftHandRing2
									{
										OFFSET 3.150009 -0.000031 0.000043
										CHANNELS 6 Xposition Yposition Zposition Xrotation Yrotation Zrotation
										JOINT mixamorig:LeftHandRing3
										{
											OFFSET 2.949982 -0.000015 0.000040
											CHANNELS 6 Xposition Yposition Zposition Xrotation Yrotation Zrotation
											JOINT mixamorig:LeftHandRing4
											{
												OFFSET 2.644348 0.000000 0.000057
												CHANNELS 6 Xposition Yposition Zposition Xrotation Yrotation Zrotation
												End Site
												{
													OFFSET 264.434631 0.000000 0.012105
												}
											}
										}
									}
								}
								JOINT mixamorig:LeftHandPinky1
								{
									OFFSET 8.077789 -0.486847 -3.806259
									CHANNELS 6 Xposition Yposition Zposition Xrotation Yrotation Zrotation
									JOINT mixamorig:LeftHandPinky2
									{
										OFFSET 3.599953 0.000031 0.014727
										CHANNELS 6 Xposition Yposition Zposition Xrotation Yrotation Zrotation
										JOINT mixamorig:LeftHandPinky3
										{
											OFFSET 2.100021 0.000015 0.007705
											CHANNELS 6 Xposition Yposition Zposition Xrotation Yrotation Zrotation
											JOINT mixamorig:LeftHandPinky4
											{
												OFFSET 2.125504 0.000031 0.007517
												CHANNELS 6 Xposition Yposition Zposition Xrotation Yrotation Zrotation
												End Site
												{
													OFFSET 212.550781 0.000000 0.625752
												}
											}
										}
									}
								}
							}
						}
					}
				}
			}
		}
	}
	JOINT mixamorig:RightUpLeg
	{
		OFFSET -8.207787 -6.751648 -1.599560
		CHANNELS 6 Xposition Yposition Zposition Xrotation Yrotation Zrotation
		JOINT mixamorig:RightLeg
		{
			OFFSET -0.000002 -44.370117 0.345942
			CHANNELS 6 Xposition Yposition Zposition Xrotation Yrotation Zrotation
			JOINT mixamorig:RightFoot
			{
				OFFSET 0.000003 -44.423679 -3.043532
				CHANNELS 6 Xposition Yposition Zposition Xrotation Yrotation Zrotation
				JOINT mixamorig:RightToeBase
				{
					OFFSET -0.000002 -8.728671 10.710558
					CHANNELS 6 Xposition Yposition Zposition Xrotation Yrotation Zrotation
					JOINT mixamorig:RightToe_End
					{
						OFFSET -0.000001 -0.000679 9.278119
						CHANNELS 6 Xposition Yposition Zposition Xrotation Yrotation Zrotation
						End Site
						{
							OFFSET 0.000000 -0.067690 927.812134
						}
					}
				}
			}
		}
	}
	JOINT mixamorig:LeftUpLeg
	{
		OFFSET 8.207793 -6.751686 -1.599556
		CHANNELS 6 Xposition Yposition Zposition Xrotation Yrotation Zrotation
		JOINT mixamorig:LeftLeg
		{
			OFFSET -0.000004 -44.370014 0.346954
			CHANNELS 6 Xposition Yposition Zposition Xrotation Yrotation Zrotation
			JOINT mixamorig:LeftFoot
			{
				OFFSET -0.000001 -44.423672 -3.044401
				CHANNELS 6 Xposition Yposition Zposition Xrotation Yrotation Zrotation
				JOINT mixamorig:LeftToeBase
				{
					OFFSET -0.000002 -8.728669 10.710558
					CHANNELS 6 Xposition Yposition Zposition Xrotation Yrotation Zrotation
					JOINT mixamorig:LeftToe_End
					{
						OFFSET -0.000003 -0.000679 9.278133
						CHANNELS 6 Xposition Yposition Zposition Xrotation Yrotation Zrotation
						End Site
						{
							OFFSET 0.000000 -0.068021 927.813477
						}
					}
				}
			}
		}
	}
}
MOTION
Frames: 3
Frame Time: 0.033333
0.000006 104.270477 1.554256 0.000010 0.000003 -0.000113 -0.000005 10.181587 0.131522 0.000001 -0.000003 0.000084 -0.000000 9.893967 -1.470711 0.000001 0.000000 -0.000000 -0.000000 9.220802 -1.370642 0.000000 -0.000000 -0.000000 0.000001 16.740433 -2.049030 0.000000 -0.000000 -0.000000 0.000000 9.617859 1.685014 0.000000 0.000000 0.000000 0.000002 22.037384 7.501101 0.000000 -0.000000 0.000000 -4.569968 11.014880 -2.160881 0.000008 0.000001 -0.000038 -10.592810 -0.524833 -2.231778 72.532627 58.689261 -44.829100 -27.841476 0.000004 0.000591 28.884959 105.364288 -37.336136 -28.328835 0.000021 0.000031 -0.000323 -0.000045 0.000007 -2.464910 -1.574128 2.682158 98.823623 -199.875733 163.964114 -3.215190 -1.872994 1.924623 249.694285 2.932232 -29.207603 -2.654750 -1.528195 1.513118 208.167896 -10.560687 -62.301290 -2.018838 -1.151986 1.108058 -0.000002 -0.000002 0.000004 -9.108151 -0.517735 2.260441 197.691138 20.248173 -262.168233 -3.699911 0.000174 0.001813 22.100815 164.534312 -110.390549 -2.849973 0.000120 0.000065 28.152862 170.486822 -143.285047 -2.772187 -0.000016 -0.000011 -0.000001 -0.000002 0.000001 -9.532396 0.000086 0.000586 22.149462 161.544274 -100.574419 -3.699979 0.000104 0.004297 28.275964 169.769953 -141.046371 -2.949964 0.000036 -0.001487 212.954575 6.180782 -339.326721 -2.946623 0.000014 -0.000171 -0.000002 -0.000002 -0.000001 -9.103503 -0.042916 -1.864530 22.378020 162.934026 -105.659680 -3.379260 0.000059 -0.000481 210.164975 7.141287 -333.886585 -2.889715 0.000033 0.000931 214.558303 1.827421 5.993588 -2.638797 -0.000002 0.000942 0.000001 0.000002 0.000001 -8.076572 -0.486563 -3.805677 197.200989 16.687243 -271.762982 -3.599977 0.000012 -0.003176 29.757304 172.283530 -152.324939 -2.099995 -0.000039 -0.005194 217.398788 1.548471 -355.997137 -2.115776 -0.000035 -0.003682 -0.000002 0.000003 -0.000000 4.570446 11.014691 -2.160851 -0.000018 0.000010 -0.000021 10.592506 -0.524514 -2.232404 67.242932 -56.262273 39.141605 27.841787 -0.000045 -0.000118 204.349206 -75.049968 211.381132 28.328838 -0.000030 0.000025 0.000017 -0.000087 0.000001 2.466117 -1.576167 2.681879 23.558463 121.801083 -78.526057 3.217805 -1.872025 1.916525 66.304690 130.362643 -121.133378 2.656053 -1.528790 1.514615 70.900478 139.241275 -128.045529 2.020892 -1.154082 1.115138 0.000003 0.000003 -0.000001 9.109340 -0.518010 2.259934 170.274294 -20.284347 -230.937821 3.700084 0.000140 -0.000428 -86.453372 -152.442815 -150.735199 2.850039 0.000065 0.000258 -313.802933 -17.692061 7.594509 2.774880 -0.000030 -0.000028 0.000003 0.000001 -0.000000 9.533510 0.000125 0.000091 346.297421 -164.101073 -81.473734 3.700063 0.000188 -0.000382 -270.755420 -12.722491 12.554530 2.950026 0.000055 -0.000167 -318.365417 -4.346834 1.654425 2.952870 -0.000018 0.000063 0.000000 -0.000000 -0.000002 9.104667 -0.042922 -1.865036 347.548821 -165.673424 -81.901741 3.149963 0.000257 -0.000169 87.552835 10.719566 -10.272509 2.949924 0.000081 -0.000115 -141.586051 -202.116895 -187.789890 2.644330 0.000016 0.000057 -0.000002 0.000002 0.000001 8.077870 -0.486857 -3.806201 173.156210 -10.771987 -239.043944 3.599870 0.000290 0.014516 95.275176 15.819794 -17.005983 2.099953 0.000075 0.007564 -145.478030 152.061444 171.167928 2.125497 -0.000018 0.007516 -0.000002 -0.000000 0.000003 -8.207786 -6.751667 -1.599560 -0.077001 -0.000003 0.000080 -0.000002 -44.370110 0.345938 0.153719 -0.000000 -0.000000 0.000000 -44.423679 -3.043532 -0.076700 0.000000 -0.000002 -0.000006 -8.728667 10.710559 -0.000009 -0.000000 -0.000000 -0.000001 -0.000679 9.278123 0.000000 -0.000000 -0.000000 8.207792 -6.751710 -1.599556 -0.074518 -0.000003 0.000081 -0.000002 -44.370014 0.346960 0.148822 0.000002 0.000000 -0.000001 -44.423664 -3.044403 -0.074314 0.000000 -0.000002 -0.000004 -8.728671 10.710558 0.000007 -0.000000 -0.000000 0.000000 -0.000680 9.278137 -0.000000 0.000000 -0.000001 
0.000006 104.270477 1.554256 0.000010 0.000003 -0.000113 -0.000005 10.181587 0.131522 0.000001 -0.000003 0.000084 -0.000000 9.893967 -1.470711 0.000001 0.000000 -0.000000 -0.000000 9.220802 -1.370642 0.000000 -0.000000 -0.000000 0.000001 16.740433 -2.049030 0.000000 -0.000000 -0.000000 0.000000 9.617859 1.685014 0.000000 0.000000 0.000000 0.000002 22.037384 7.501101 0.000000 -0.000000 0.000000 -4.569968 11.014880 -2.160881 0.000008 0.000001 -0.000038 -10.592804 -0.524834 -2.231774 72.241852 58.747550 -44.662351 -27.841469 0.000008 0.000595 28.275554 105.689330 -36.771788 -28.328836 0.000021 0.000016 -0.000324 -0.000045 0.000007 -2.464916 -1.574106 2.682152 92.722646 -202.150131 164.241884 -3.215216 -1.872955 1.924655 239.174018 7.114945 -29.792838 -2.654685 -1.528150 1.513154 191.624932 -14.769721 -82.621329 -2.018826 -1.152014 1.108067 -0.000004 -0.000001 0.000002 -9.108153 -0.517718 2.260442 198.737850 20.046588 -266.073844 -3.699929 0.000146 0.001807 27.525522 165.511111 -125.166372 -2.850008 0.000082 0.000049 36.509885 171.599282 -154.896860 -2.772154 -0.000015 -0.000020 -0.000000 -0.000004 0.000002 -9.532401 0.000084 0.000576 22.951295 161.591744 -102.758427 -3.699977 0.000091 0.004291 32.387309 170.491671 -148.212441 -2.949991 -0.000000 -0.001500 220.018138 5.775888 -344.239212 -2.946630 0.000017 -0.000151 -0.000001 0.000001 -0.000001 -9.103484 -0.042906 -1.864532 21.874190 162.786207 -103.878223 -3.379268 0.000027 -0.000480 214.036491 6.600892 -338.622802 -2.889724 -0.000010 0.000920 221.082172 1.351545 3.710931 -2.638813 -0.000029 0.000939 0.000003 -0.000003 -0.000004 -8.076531 -0.486546 -3.805681 195.450972 17.224275 -263.645083 -3.599967 0.000022 -0.003166 30.344751 170.849191 -147.844499 -2.100006 -0.000039 -0.005207 220.688876 2.693150 -353.248887 -2.115767 -0.000062 -0.003682 -0.000001 0.000007 -0.000004 4.570446 11.014691 -2.160851 -0.000018 0.000010 -0.000021 10.592506 -0.524522 -2.232393 67.334368 -55.989123 38.996726 27.841793 -0.000034 -0.000132 203.218591 -74.540655 210.215819 28.328829 -0.000044 0.000021 0.000025 -0.000087 0.000001 2.466086 -1.576197 2.681886 13.086070 120.425715 -66.302811 3.217809 -1.872024 1.916520 62.605036 129.744238 -117.874421 2.656035 -1.528790 1.514606 71.110411 138.476785 -127.821649 2.020883 -1.154084 1.115144 0.000001 0.000002 0.000003 9.109310 -0.518041 2.259942 174.265911 -17.173030 -216.777910 3.700118 0.000109 -0.000317 -22.447383 -158.838003 -93.386308 2.850134 0.000116 0.000374 -201.168387 -19.198557 84.289671 2.774879 -0.000031 -0.000028 -0.000000 0.000001 0.000000 9.533470 0.000082 0.000101 351.197645 -166.709413 -66.970674 3.700082 0.000257 -0.000338 -242.679299 -12.158655 19.836519 2.950064 0.000141 -0.000190 -284.215591 -12.784681 9.968419 2.952868 -0.000016 0.000074 -0.000002 0.000001 0.000002 9.104629 -0.042968 -1.865023 350.875724 -167.441022 -71.878636 3.149930 0.000295 -0.000142 100.914454 13.842221 -16.727268 2.949922 0.000129 -0.000147 -128.438606 -201.414328 -190.436029 2.644318 0.000031 0.000058 -0.000000 0.000000 -0.000000 8.077789 -0.486892 -3.806190 175.843657 -11.369427 -214.523101 3.599828 0.000349 0.014539 112.264377 20.219011 -29.409087 2.099935 0.000099 0.007524 -131.266277 151.500631 166.923963 2.125497 0.000005 0.007513 -0.000004 0.000002 0.000002 -8.207786 -6.751667 -1.599560 -0.077001 -0.000003 0.000080 -0.000002 -44.370110 0.345938 0.153719 -0.000000 -0.000000 0.000000 -44.423679 -3.043532 -0.076700 0.000000 -0.000002 -0.000006 -8.728667 10.710559 -0.000009 -0.000000 -0.000000 -0.000001 -0.000679 9.278123 0.000000 -0.000000 -0.000000 8.207792 -6.751710 -1.599556 -0.074518 -0.000003 0.000081 -0.000002 -44.370014 0.346960 0.148822 0.000002 0.000000 -0.000001 -44.423664 -3.044403 -0.074314 0.000000 -0.000002 -0.000004 -8.728671 10.710558 0.000007 -0.000000 -0.000000 0.000000 -0.000680 9.278137 -0.000000 0.000000 -0.000001 
0.000006 104.270477 1.554256 0.000010 0.000003 -0.000113 -0.000005 10.181587 0.131522 0.000001 -0.000003 0.000084 -0.000000 9.893967 -1.470711 0.000001 0.000000 -0.000000 -0.000000 9.220802 -1.370642 0.000000 -0.000000 -0.000000 0.000001 16.740433 -2.049030 0.000000 -0.000000 -0.000000 0.000000 9.617859 1.685014 0.000000 0.000000 0.000000 0.000002 22.037384 7.501101 0.000000 -0.000000 0.000000 -4.569968 11.014880 -2.160881 0.000008 0.000001 -0.000038 -10.592802 -0.524837 -2.231770 72.048414 59.754395 -45.347122 -27.841475 -0.000004 0.000587 28.531319 104.980247 -36.653705 -28.328821 0.000023 0.000030 -0.000321 -0.000044 0.000007 -2.464903 -1.574079 2.682163 92.728219 -203.040282 164.573873 -3.215246 -1.872935 1.924638 243.953047 13.371694 -24.155435 -2.654860 -1.528106 1.513128 200.863993 6.622932 -47.678955 -2.018838 -1.151981 1.108069 -0.000003 -0.000003 0.000004 -9.108137 -0.517709 2.260443 199.377948 23.510800 -258.760760 -3.699907 0.000142 0.001819 27.075833 160.580794 -109.210210 -2.849982 0.000116 0.000070 33.124696 166.511911 -136.633303 -2.772161 -0.000016 -0.000021 -0.000000 0.000001 -0.000001 -9.532404 0.000107 0.000585 24.318566 160.165272 -101.845565 -3.699977 0.000082 0.004294 34.933470 168.783837 -145.487715 -2.950005 -0.000005 -0.001504 224.890576 8.867250 -338.749871 -2.946626 0.000002 -0.000164 0.000001 -0.000003 0.000001 -9.103489 -0.042907 -1.864522 24.055706 161.194595 -104.306872 -3.379259 0.000013 -0.000485 217.974436 8.263788 -336.253765 -2.889709 -0.000024 0.000923 226.501149 3.923749 9.202230 -2.638796 -0.000028 0.000937 0.000001 0.000006 -0.000002 -8.076550 -0.486550 -3.805693 198.816411 19.666215 -267.390404 -3.599968 0.000019 -0.003164 34.014322 168.384886 -143.796669 -2.100009 -0.000045 -0.005199 223.756492 5.987772 -345.577820 -2.115778 -0.000052 -0.003679 0.000001 0.000001 0.000001 4.570446 11.014691 -2.160851 -0.000018 0.000010 -0.000021 10.592506 -0.524517 -2.232393 67.242413 -56.540142 39.352302 27.841795 -0.000030 -0.000124 202.268443 -73.938601 209.306284 28.328825 -0.000043 0.000023 0.000022 -0.000089 -0.000001 2.466030 -1.576190 2.681888 -13.028672 117.610311 -33.732044 3.217790 -1.872030 1.916516 67.225789 126.542218 -119.940280 2.656044 -1.528781 1.514610 78.068079 137.755627 -132.371061 2.020895 -1.154072 1.115140 -0.000003 -0.000000 0.000001 9.109189 -0.518056 2.259966 179.509461 -16.511444 -183.450849 3.700112 0.000085 -0.000300 -19.668573 -160.778610 -91.261013 2.850125 0.000180 0.000364 -200.455178 -15.138296 72.735183 2.774888 -0.000031 -0.000023 -0.000001 -0.000000 -0.000000 9.533438 0.000036 0.000117 353.465513 -167.908234 -56.728679 3.700044 0.000258 -0.000366 -250.439678 -9.550648 13.493927 2.950037 0.000112 -0.000206 -296.147877 -5.694408 3.551535 2.952881 -0.000015 0.000068 0.000004 -0.000001 0.000003 9.104630 -0.042956 -1.865017 352.952184 -170.715483 -74.331480 3.149889 0.000320 -0.000159 106.011052 20.128170 -26.510037 2.949905 0.000154 -0.000186 -121.805263 -206.034582 -194.662782 2.644317 0.000014 0.000058 -0.000001 -0.000002 0.000001 8.077682 -0.486886 -3.806183 179.220175 -3.288037 -189.464981 3.599718 0.000304 0.014587 128.815100 31.410899 -60.699522 2.099844 0.000169 0.007500 -103.909881 140.308000 148.492971 2.125517 -0.000018 0.007513 -0.000002 0.000002 0.000000 -8.207786 -6.751667 -1.599560 -0.077001 -0.000003 0.000080 -0.000002 -44.370110 0.345938 0.153719 -0.000000 -0.000000 0.000000 -44.423679 -3.043532 -0.076700 0.000000 -0.000002 -0.000006 -8.728667 10.710559 -0.000009 -0.000000 -0.000000 -0.000001 -0.000679 9.278123 0.000000 -0.000000 -0.000000 8.207792 -6.751710 -1.599556 -0.074518 -0.000003 0.000081 -0.000002 -44.370014 0.346960 0.148822 0.000002 0.000000 -0.000001 -44.423664 -3.044403 -0.074314 0.000000 -0.000002 -0.000004 -8.728671 10.710558 0.000007 -0.000000 -0.000000 0.000000 -0.000680 9.278137 -0.000000 0.000000 -0.000001 
